HIERARCHY
ROOT root     
{
	OFFSET 0.0000 0.0000 0.0000
	CHANNELS 6 Xposition Yposition Zposition Zrotation Yrotation Xrotation
	JOINT pelvis   
	{
		OFFSET 0.0000 0.0000 0.0000
		CHANNELS 3 Zrotation Yrotation Xrotation
		JOINT thorax   
		{
			OFFSET 0.0000 23.0750 -5.0000
			CHANNELS 3 Zrotation Yrotation Xrotation
			JOINT rclavicle
			{
				OFFSET 0.0000 28.0009 0.0000
				CHANNELS 3 Zrotation Yrotation Xrotation
				JOINT rhumerus 
				{
					OFFSET -18.5725 5.5939 0.0000
					CHANNELS 3 Zrotation Yrotation Xrotation
					JOINT rradius  
					{
						OFFSET -24.8459 0.0000 0.0000
						CHANNELS 3 Zrotation Yrotation Xrotation
						JOINT rhand    
						{
							OFFSET -24.5477 0.0000 0.0000
							CHANNELS 3 Zrotation Yrotation Xrotation
							End Site
							{
								OFFSET -8.1826 0.0000 0.0000
							}
						}
					}
				}
			}
			JOINT lclavicle
			{
				OFFSET 0.0000 28.0009 0.0000
				CHANNELS 3 Zrotation Yrotation Xrotation
				JOINT lhumerus 
				{
					OFFSET 18.5725 5.5939 0.0000
					CHANNELS 3 Zrotation Yrotation Xrotation
					JOINT lradius  
					{
						OFFSET 24.8459 0.0000 0.0000
						CHANNELS 3 Zrotation Yrotation Xrotation
						JOINT lhand    
						{
							OFFSET 24.5477 0.0000 0.0000
							CHANNELS 3 Zrotation Yrotation Xrotation
							End Site
							{
								OFFSET 8.1826 0.0000 0.0000
							}
						}
					}
				}
			}
			JOINT head     
			{
				OFFSET 0.0000 35.2030 0.0000
				CHANNELS 3 Zrotation Yrotation Xrotation
				End Site
				{
					OFFSET 0.0000 11.7343 0.0000
				}
			}
		}
		JOINT rfemur   
		{
			OFFSET -8.2817 0.0000 0.0000
			CHANNELS 3 Zrotation Yrotation Xrotation
			JOINT rtibia   
			{
				OFFSET 0.0000 -43.3627 0.0000
				CHANNELS 3 Zrotation Yrotation Xrotation
				JOINT rfoot    
				{
					OFFSET 0.0000 -38.2947 0.0000
					CHANNELS 3 Zrotation Yrotation Xrotation
					JOINT rtoes    
					{
						OFFSET 0.0000 0.0000 16.6054
						CHANNELS 3 Zrotation Yrotation Xrotation
						End Site
						{
							OFFSET 0.0000 0.0000 5.5351
						}
					}
				}
			}
		}
		JOINT lfemur   
		{
			OFFSET 8.2817 0.0000 0.0000
			CHANNELS 3 Zrotation Yrotation Xrotation
			JOINT ltibia   
			{
				OFFSET 0.0000 -43.3627 0.0000
				CHANNELS 3 Zrotation Yrotation Xrotation
				JOINT lfoot    
				{
					OFFSET 0.0000 -38.2947 0.0000
					CHANNELS 3 Zrotation Yrotation Xrotation
					JOINT ltoes    
					{
						OFFSET 0.0000 0.0000 16.6054
						CHANNELS 3 Zrotation Yrotation Xrotation
						End Site
						{
							OFFSET 0.0000 0.0000 5.5351
						}
					}
				}
			}
		}
	}
}
MOTION
Frames: 15
Frame Time: .0333333
22.102 79.139 5.7461 -167.563 -87.6115 -170.692 0 -0 0 -0.0211885 9.0307 14.2657 12.4567 -11.0092 0.00010433 44.9454 1.38984 4.54884 -180 77.5637 -180 -3.21831 6.12727 -0.172299 -15.8356 26.3317 -0.000217512 -55.3886 27.2685 11.7356 3.96492e-06 -85.7943 -4.267e-06 -3.21071 2.78249 -0.0780003 -0.424007 -4.284 -16.9743 3.82327 -14.2738 -19.2707 -0 -0 51.3096 3.17209e-06 5.2935 -5.83797 -0.539998 1.05237e-05 -66.2838 -12.8188 6.6529 -61.3673 -0 -0 32.7292 7.14847e-08 9.64611 -4.10254 -0.696603 2.07067e-07 -29.4682 
20.739 78.917 5.7061 -164.648 -87.5572 -173.783 0 -0 0 -0.196309 9.22756 14.2306 12.434 -11.0465 -2.56701e-05 44.953 1.25409 4.37294 -180 77.6957 -180 -3.29583 6.08529 -0.175195 -15.6102 26.4884 0.000157882 -55.4532 27.8935 11.6711 -2.20413e-06 -85.9431 2.05313e-06 -3.35485 2.87154 -0.0840996 -0.438594 -4.24373 -16.7871 3.49021 -14.4286 -18.1817 -0 -0 51.3284 -3.09193e-06 5.88134 -4.95098 -0.509402 -2.72178e-06 -68.716 -12.3366 6.27539 -61.1036 -0 -0 32.5629 1.84336e-06 9.87489 -3.03075 -0.527307 6.36533e-06 -29.3758 
19.364 78.672 5.6684 -162.02 -87.477 -176.6 0 -0 0 -0.379906 9.42555 14.1848 12.4492 -11.065 -3.95514e-05 44.9514 1.09688 4.20487 -180 77.8425 -180 -3.3381 6.02703 -0.175803 -15.3967 26.6122 0.000160902 -55.498 28.4777 11.6189 0 -86.0942 0 -3.51672 2.95805 -0.0908012 -0.424398 -4.19143 -16.5775 3.12202 -14.5773 -17.12 -0 -0 51.4288 -3.87399e-06 6.49929 -4.05299 -0.461301 -1.96891e-06 -71.1317 -11.7548 5.87625 -60.9284 -0 -0 32.9488 -2.8834e-06 10.1987 -1.87557 -0.337399 -6.69673e-07 -28.8997 
17.98 78.408 5.634 -159.879 -87.3557 -178.953 0 -0 0 -0.578873 9.63268 14.1392 12.5022 -11.06 -7.55782e-06 44.9404 0.914831 4.03968 -180 78.0045 -180 -3.34883 5.95613 -0.174304 -15.2011 26.7035 1.32738e-05 -55.5224 29.0058 11.5803 0 -86.2808 0 -3.68969 3.03821 -0.0979 -0.380814 -4.13205 -16.3569 2.70879 -14.7109 -16.0895 -0 -0 51.6179 5.28612e-06 7.15474 -3.12898 -0.392604 -4.53874e-06 -73.5171 -11.1325 5.49611 -60.8559 -0 -0 33.8764 1.58184e-07 10.5491 -0.691094 -0.128703 -1.59351e-06 -27.9994 
16.588 78.127 5.6037 -158.42 -87.2221 179.363 0 -0 0 -0.797798 9.85776 14.1054 12.5956 -11.0278 -5.24806e-05 44.9254 0.704931 3.87436 -180 78.1759 -180 -3.33533 5.87644 -0.171201 -15.0294 26.7611 -0.000220149 -55.5236 29.4628 11.5582 -5.04434e-06 -86.4641 4.74234e-06 -3.86461 3.10724 -0.104902 -0.310103 -4.07024 -16.1318 2.24259 -14.817 -15.0908 -0 -0 51.9023 1.19103e-06 7.85694 -2.16195 -0.298291 -1.35676e-07 -75.8191 -10.5311 5.18238 -60.8836 -0 -0 35.3032 1.03004e-07 10.8567 0.452694 0.0868016 1.77124e-07 -26.6474 
15.19 77.834 5.5777 -157.684 -87.0347 178.369 0 -0 0 -1.03917 10.1073 14.0935 12.7239 -10.9656 7.29322e-05 44.9123 0.467873 3.70944 -180 78.3511 -180 -3.30602 5.79302 -0.167301 -14.8851 26.7863 2.33162e-05 -55.5055 29.8314 11.552 0 -86.6529 0 -4.03025 3.16208 -0.111301 -0.216991 -4.00825 -15.9094 1.71987 -14.8835 -14.1314 -0 -0 52.29 1.69338e-07 8.61461 -1.12819 -0.170903 -3.79734e-06 -77.9718 -10.0019 4.97532 -60.9909 -0 -0 37.1529 5.89518e-06 11.0706 1.47796 0.289107 2.98149e-06 -24.8571 
13.79 77.533 5.5565 -157.651 -86.8157 178.054 0 -0 0 -1.30387 10.3836 14.1096 12.885 -10.8738 -5.68146e-05 44.9095 0.207902 3.54793 -180 78.536 -180 -3.26946 5.71024 -0.163105 -14.7756 26.7818 -5.49172e-05 -55.4655 30.1007 11.5608 3.25517e-06 -86.8442 -3.44006e-06 -4.17622 3.20102 -0.116698 -0.108294 -3.94633 -15.6916 1.14047 -14.899 -13.2186 -0 -0 52.7877 -0 9.43103 -0 0 -0 -79.908 -9.57967 4.90035 -61.1478 -0 -0 39.3252 1.99152e-07 11.1685 2.30696 0.455302 -3.55921e-08 -22.7306 
12.39 77.229 5.5408 -158.261 -86.5562 178.358 0 -0 0 -1.59277 10.6826 14.1539 13.0734 -10.754 2.31155e-05 44.9276 -0.0667683 3.39629 -180 78.7373 -180 -3.23293 5.63315 -0.159097 -14.7034 26.7511 8.17504e-05 -55.4103 30.2582 11.5834 3.54134e-06 -87.0045 -4.11118e-06 -4.29279 3.22448 -0.1209 0.00770937 -3.88166 -15.4791 0.509364 -14.8604 -12.3688 -0 -0 53.4034 3.62362e-06 10.3018 1.25104 0.227399 1.56028e-06 -81.5655 -9.2832 4.96372 -61.3225 -0 -0 41.7047 -5.51902e-06 11.1607 2.87158 0.566295 -2.08609e-06 -20.4496 
10.996 76.927 5.5312 -159.381 -86.2575 179.156 0 -0 0 -1.90475 10.995 14.2203 13.2842 -10.6095 3.26687e-05 44.9749 -0.345123 3.26257 -180 78.961 -180 -3.202 5.56618 -0.1557 -14.6744 26.6967 7.18147e-05 -55.3415 30.2951 11.6183 2.02521e-06 -87.1415 -2.61811e-06 -4.37183 3.2347 -0.123502 0.121217 -3.80927 -15.2675 -0.163031 -14.7684 -11.6056 -0 -0 54.1459 5.90992e-06 11.2103 2.64416 0.52381 -1.93121e-06 -82.8784 -9.11411 5.15481 -61.4816 -0 -0 44.1838 -1.04292e-05 11.0821 3.11705 0.61021 -6.70361e-07 -18.2273 
9.6163 76.632 5.5281 -160.822 -85.9414 -179.722 0 -0 0 -2.23456 11.3088 14.2972 13.5096 -10.4467 1.0549e-05 45.0589 -0.615004 3.15536 -180 79.2128 -180 -3.17898 5.51313 -0.1531 -14.69 26.6224 0.000145088 -55.2657 30.2068 11.6631 0 -87.2686 0 -4.40763 3.23547 -0.1245 0.221419 -3.72316 -15.0514 -0.859141 -14.6243 -10.9558 -0 -0 55.0179 -2.03531e-05 12.1224 4.17947 0.896904 -8.52802e-06 -83.7843 -9.06121 5.45162 -61.605 -0 -0 46.6655 1.6984e-06 10.9797 3.00946 0.583593 6.37358e-07 -16.2844 
8.254 76.349 5.5348 -162.566 -85.598 -178.294 0 -0 0 -2.58995 11.6003 14.3763 13.745 -10.2693 -2.78625e-05 45.1894 -0.860586 3.08484 -180 79.524 -180 -3.16353 5.47611 -0.151301 -14.7539 26.5377 3.15218e-05 -55.1808 29.9899 11.7114 5.22792e-07 -87.3686 -1.12551e-06 -4.39732 3.23195 -0.124099 0.302207 -3.60982 -14.8277 -1.5795 -14.4583 -10.4431 -0 -0 56.0316 -2.55382e-05 13.0134 5.88325 1.3571 1.68736e-06 -84.24 -9.11406 5.8138 -61.6695 -0 -0 49.0717 -9.22601e-06 10.9077 2.52406 0.486302 -1.00813e-06 -14.646 
6.9159 76.08 5.5491 -164.327 -85.2435 -176.828 0 -0 0 -2.95059 11.8584 14.4418 13.9819 -10.0862 -1.36411e-05 45.3731 -1.0728 3.0577 -180 79.8936 -180 -3.15242 5.45686 -0.150302 -14.8661 26.4402 6.95837e-05 -55.0977 29.6495 11.7611 5.43603e-07 -87.4368 -1.14627e-06 -4.34185 3.22846 -0.122396 0.350891 -3.46557 -14.588 -2.28867 -14.2688 -10.0861 -0 -0 57.1766 -1.69602e-05 13.8062 7.69375 1.88422 2.48916e-05 -84.1685 -9.242 6.21438 -61.6718 -0 -0 51.3485 7.70944e-06 10.9033 1.67633 0.322805 1.64523e-06 -13.4543 
5.6055 75.829 5.5721 -166.076 -84.8726 -175.346 0 -0 0 -3.31217 12.0642 14.4861 14.214 -9.90282 4.57989e-05 45.6125 -1.24207 3.07838 -180 80.331 -180 -3.14048 5.45525 -0.149703 -15.0243 26.3371 0.00012425 -55.016 29.1881 11.8109 9.46438e-06 -87.4733 -9.89137e-06 -4.24417 3.23016 -0.119701 0.361704 -3.28088 -14.3305 -2.97613 -14.0777 -9.89771 -0 -0 58.4504 5.08823e-05 14.4388 9.57869 2.45318 7.59054e-06 -83.5355 -9.4212 6.61483 -61.6045 -0 -0 53.4539 -4.05268e-07 10.9977 0.498394 0.0969 2.32434e-07 -12.6952 
4.3252 75.597 5.6031 -167.696 -84.5236 -173.954 0 -0 0 -3.6626 12.206 14.5033 14.4355 -9.72504 3.35178e-06 45.9113 -1.36363 3.1483 -180 80.8567 -180 -3.12097 5.47065 -0.149097 -15.2289 26.2293 -8.92364e-05 -54.9409 28.6177 11.8575 4.1203e-06 -87.4798 -4.30522e-06 -4.11 3.24061 -0.1163 0.329909 -3.05031 -14.0533 -3.62474 -13.9013 -9.88248 -0 -0 59.8452 -2.54541e-05 14.8313 11.4748 3.01548 -6.21568e-05 -82.3085 -9.62295 6.98315 -61.4635 -0 -0 55.3637 8.29523e-08 11.2059 -0.94989 -0.188195 5.7502e-07 -12.3504 
3.0762 75.385 5.6411 -169.133 -84.1818 -172.708 0 -0 0 -3.98967 12.2738 14.494 14.6425 -9.55714 -9.40952e-05 46.271 -1.4373 3.26336 -180 81.4812 -180 -3.08768 5.50122 -0.148399 -15.4748 26.1159 -3.56246e-05 -54.8768 27.9458 11.8956 3.35279e-06 -87.4757 -3.50376e-06 -3.94676 3.26218 -0.112402 0.253704 -2.77155 -13.7599 -4.22024 -13.7539 -10.0379 -0 -0 61.347 0.000155162 14.9096 13.3075 3.50682 -1.01482e-05 -80.4974 -9.81942 7.29227 -61.2453 -0 -0 57.0666 4.54506e-06 11.5285 -2.58864 -0.527802 1.21639e-06 -12.3865 
